<?xml version="1.0" encoding="UTF-8" standalone="no"?>
<!-- Created with Inkscape (http://www.inkscape.org/) -->

<svg
   width="70"
   height="70"
   viewBox="0 0 120 120"
   version="1.1"
   id="svg1"
   inkscape:version="1.3.1 (9b9bdc1480, 2023-11-25, custom)"
   sodipodi:docname="logo2.svg"
   inkscape:dataloss="true"
   xmlns:inkscape="http://www.inkscape.org/namespaces/inkscape"
   xmlns:sodipodi="http://sodipodi.sourceforge.net/DTD/sodipodi-0.dtd"
   xmlns="http://www.w3.org/2000/svg"
   xmlns:svg="http://www.w3.org/2000/svg">
  <sodipodi:namedview
     id="namedview1"
     pagecolor="#ffffff"
     bordercolor="#000000"
     borderopacity="0.25"
     inkscape:showpageshadow="2"
     inkscape:pageopacity="0.0"
     inkscape:pagecheckerboard="0"
     inkscape:deskcolor="#d1d1d1"
     inkscape:document-units="px"
     showguides="true"
     inkscape:zoom="1.7"
     inkscape:cx="28.235294"
     inkscape:cy="105"
     inkscape:window-width="1764"
     inkscape:window-height="991"
     inkscape:window-x="26"
     inkscape:window-y="23"
     inkscape:window-maximized="0"
     inkscape:current-layer="layer1">
    <sodipodi:guide
       position="14.98607,72.362491"
       orientation="1,0"
       id="guide2"
       inkscape:locked="false" />
    <sodipodi:guide
       position="126.45627,45.487323"
       orientation="0,-1"
       id="guide3"
       inkscape:locked="false" />
    <sodipodi:guide
       position="107.68382,72.055377"
       orientation="1,0"
       id="guide4"
       inkscape:locked="false" />
    <sodipodi:guide
       position="13.644139,68.866366"
       orientation="1,0"
       id="guide5"
       inkscape:locked="false" />
  </sodipodi:namedview>
  <defs
     id="defs1">
    <filter
       inkscape:collect="always"
       style="color-interpolation-filters:sRGB"
       id="filter408"
       x="-0.025177457"
       y="-0.024502867"
       width="1.0502549"
       height="1.0489877">
      <feGaussianBlur
         inkscape:collect="always"
         stdDeviation="0.75195095"
         id="feGaussianBlur408" />
    </filter>
  </defs>
  <rect
     style="display:inline;fill:#f6f6f6;fill-opacity:1;stroke:#000000;stroke-width:2"
     id="rect89"
     width="118"
     height="118"
     x="1"
     y="1"
     rx="14.939923"
     inkscape:highlight-color="#14e2cf" />
  <g
     inkscape:label="Слой 1"
     inkscape:groupmode="layer"
     id="layer1">
    <path
       style="mix-blend-mode:multiply;fill:#63f47f;fill-opacity:0.916875;fill-rule:evenodd;stroke:#000000;stroke-width:0.8;stroke-linecap:round;stroke-linejoin:round;stroke-dasharray:none;stroke-dashoffset:0;stroke-opacity:1;filter:url(#filter408)"
       d="m 61.911765,107.85293 c -4.798761,-0.41676 -9.680189,-1.87614 -13.12815,-3.92488 -4.881089,-2.90027 -8.016839,-6.956932 -9.909827,-12.820147 l -0.712023,-2.205374 -4.282208,-0.0027 c -4.836775,-0.0031 -5.928182,-0.12919 -8.225834,-0.950401 -4.9953,-1.78539 -8.730613,-5.844737 -10.071687,-10.945394 -0.162198,-0.616905 -0.358462,-1.882675 -0.436143,-2.812823 -0.181319,-2.171107 -0.182638,-19.663595 -0.0017,-21.985294 0.552152,-7.083261 5.500893,-12.765131 12.502824,-14.355048 0.803877,-0.182534 2.120073,-0.316606 3.687875,-0.375658 l 2.437875,-0.09182 -0.257299,-1.079956 c -0.462566,-1.941526 -0.72831,-3.771204 -0.819397,-5.641632 -0.191789,-3.938309 0.559528,-5.644937 3.448249,-7.83275 2.428584,-1.839321 5.867726,-3.396678 9.15592,-4.1461 4.423693,-1.008218 9.975743,-1.008218 14.399436,0 4.069223,0.927429 8.270094,3.083983 10.757032,5.522216 2.502226,2.453221 3.812234,6.099899 4.183771,11.646387 l 0.1055,1.574953 h 6.235726 c 3.448184,0 6.865957,0.07028 7.64555,0.157204 7.395969,0.8247 13.267165,6.551071 14.162725,13.813384 0.12253,0.993654 0.15722,4.666759 0.12013,12.720588 l -0.0521,11.323529 -0.39902,1.470589 c -0.71397,2.631273 -2.06938,5.069695 -3.891974,7.001735 -1.340537,1.42104 -2.630819,2.36219 -4.5229,3.299065 -2.087418,1.033598 -3.991899,1.530013 -6.30603,1.643706 l -1.747206,0.08584 0.09442,1.132183 c 0.05193,0.622701 0.268054,2.151167 0.480275,3.396592 0.212221,1.245425 0.393475,2.893086 0.402787,3.661468 0.01516,1.251134 -0.02603,1.484531 -0.394312,2.234498 -0.747827,1.52286 -3.625644,3.86031 -6.567112,5.33401 -5.083734,2.547 -11.730475,3.70483 -18.095176,3.15207 z m 6.880795,-1.90196 c 5.992941,-0.63779 11.156206,-2.67456 14.830743,-5.85033 1.71025,-1.478114 1.795075,-1.988564 1.0892,-6.554459 -0.239006,-1.545988 -0.476354,-3.199166 -0.527443,-3.673731 l -0.09289,-0.862844 -0.685793,0.08622 c -5.213903,0.655485 -11.343051,-0.359304 -16.304138,-2.69944 -0.832703,-0.392785 -1.514006,-0.762576 -1.514006,-0.82176 0,-0.08233 0.650361,-1.287251 0.806739,-1.494643 0.01562,-0.02072 0.717333,0.28607 1.559361,0.681749 3.912196,1.83839 8.589364,2.790501 12.869102,2.619709 6.748579,-0.269316 8.219423,-0.384486 9.691269,-0.75884 4.880079,-1.241221 8.801231,-5.095259 10.104356,-9.931421 l 0.33682,-1.25 V 63.235294 c 0,-12.199968 -1.4e-4,-12.206488 -0.33175,-13.455882 -0.67086,-2.527734 -1.990241,-4.754358 -3.878079,-6.544759 -1.838469,-1.743579 -3.670107,-2.766235 -6.244813,-3.486656 -1.115903,-0.312237 -1.458731,-0.327431 -8.464891,-0.375138 l -7.301886,-0.04972 -0.09611,1.441372 c -0.367516,5.51201 -1.409951,11.712435 -2.970373,17.667865 -0.282712,1.078982 -0.489383,1.986423 -0.459268,2.016538 0.03011,0.03011 1.706134,0.656254 3.724488,1.391423 2.018356,0.735169 3.809802,1.428246 3.980992,1.540168 0.57435,0.375507 0.524478,1.216753 -0.09168,1.546512 -0.263309,0.140919 -1.001206,-0.08361 -4.750942,-1.44563 -4.903546,-1.781117 -6.585149,-2.270789 -10.3951,-3.026985 -4.092734,-0.812322 -6.028211,-1.023393 -9.411765,-1.026387 -3.511338,-0.0031 -5.128637,0.262471 -6.958703,1.142697 -2.982356,1.434456 -6.172241,6.805352 -7.440441,12.527672 -1.004233,4.531256 -1.007293,10.085056 -0.0081,14.695736 1.206394,5.566775 3.933731,10.26312 7.569007,13.03347 3.606202,2.7482 8.756269,4.58829 14.485294,5.17552 1.186989,0.12167 5.558884,0.0885 6.880796,-0.0521 z M 37.794118,87.082775 c 0,-0.02727 -0.100692,-0.705576 -0.223758,-1.507353 -0.496514,-3.234787 -0.434935,-7.751606 0.152318,-11.17259 0.948341,-5.524463 3.287809,-10.550729 6.386571,-13.721325 1.527936,-1.563358 3.295564,-2.399176 6.111339,-2.889729 3.934758,-0.685497 11.161125,0.008 17.5,1.679322 0.889706,0.234588 1.632441,0.412706 1.650522,0.395816 0.115534,-0.107912 1.443378,-5.60097 1.869687,-7.734563 1.069979,-5.355025 1.552062,-9.67854 1.552818,-13.926291 10e-4,-6.022921 -1.039171,-9.914814 -3.30309,-12.35796 -5.959482,-6.431275 -19.917106,-8.060185 -29.234097,-3.411735 -1.586384,0.791482 -3.019515,1.75251 -4.086394,2.740252 -1.217987,1.127641 -1.491933,1.890627 -1.573403,4.382205 -0.06889,2.10696 0.144031,3.894739 0.781282,6.559833 l 0.37749,1.578727 1.35024,0.592163 c 4.237133,1.858243 9.270858,2.726454 13.715114,2.365571 1.030333,-0.08367 1.920199,-0.181086 1.977483,-0.216489 0.110276,-0.06815 0.521163,1.658634 0.418982,1.760815 -0.224579,0.22458 -3.027806,0.40175 -5.276046,0.333457 C 43.7598,42.40589 40.305591,41.650456 36.581201,40.048478 l -1.727623,-0.743104 -3.125318,0.06988 c -3.728521,0.08337 -4.640864,0.276212 -7.095907,1.499845 -3.635997,1.812242 -6.164009,4.906842 -7.248543,8.873114 l -0.39054,1.428253 -0.04865,11.25 c -0.0333,7.700132 0.0031,11.641108 0.115275,12.489475 0.381688,2.886032 1.641313,5.558855 3.592761,7.623554 1.425982,1.508738 2.567116,2.339357 4.36918,3.180279 1.490802,0.695674 2.746184,1.067046 4.24287,1.255146 0.912907,0.114731 8.529412,0.211038 8.529412,0.10785 z"
       id="path400" />
    <path
       style="fill:#bd843f;fill-opacity:0.916875;fill-rule:evenodd;stroke:#000000;stroke-width:1;stroke-linecap:round;stroke-linejoin:round;stroke-dasharray:none;stroke-dashoffset:0;stroke-opacity:1"
       d="m 41.632911,31.389042 c -1.838125,-0.228758 -2.761949,-0.927475 -2.436879,-1.843088 0.288748,-0.813306 1.763462,-1.23713 4.304641,-1.23713 2.950422,0 4.32476,0.464978 4.41145,1.492522 0.08842,1.048087 -0.960876,1.513293 -3.722127,1.650202 -0.808174,0.04007 -1.958863,0.01194 -2.557085,-0.06251 z"
       id="path401" />
    <path
       style="fill:#bd843f;fill-opacity:0.916875;fill-rule:evenodd;stroke:#000000;stroke-width:1;stroke-linecap:round;stroke-linejoin:round;stroke-dasharray:none;stroke-dashoffset:0;stroke-opacity:1"
       d="m 73.308824,98.010245 c -1.051734,-0.162791 -1.950626,-0.53833 -2.141289,-0.894588 -0.222663,-0.416049 -0.159189,-1.095126 0.126531,-1.353699 0.635042,-0.574705 1.489482,-0.737946 3.926522,-0.750163 2.522469,-0.01265 3.636574,0.164842 4.173254,0.664835 0.804659,0.749654 0.435328,1.649923 -0.855181,2.084566 -0.9255,0.311707 -3.907562,0.453716 -5.229837,0.249049 z"
       id="path402" />
    <path
       style="fill:#4f66a5;fill-opacity:0.916875;fill-rule:evenodd;stroke:#000000;stroke-width:1;stroke-linecap:round;stroke-linejoin:round;stroke-dasharray:none;stroke-dashoffset:0;stroke-opacity:1"
       d="m 29.114586,86.418107 c -3.980344,-0.514075 -8.172012,-3.442096 -10.041143,-7.014075 -1.586738,-3.032315 -1.603982,-3.209653 -1.601886,-16.4736 l 0.0019,-11.769177 0.682015,-1.978148 c 0.375108,-1.087981 1.034602,-2.509343 1.465542,-3.158583 1.032802,-1.555982 3.129989,-3.49609 4.755676,-4.399477 2.308941,-1.283069 3.606356,-1.599514 7.106465,-1.733297 3.096886,-0.118371 3.164713,-0.111511 4.496142,0.454711 4.562359,1.940255 6.78508,2.403144 12.166396,2.533694 2.975073,0.07218 4.55878,0.03152 4.967652,-0.127518 0.577128,-0.224486 0.595492,-0.273465 0.477151,-1.272676 -0.06769,-0.571561 -0.183036,-1.136218 -0.25632,-1.254793 -0.0881,-0.142558 -1.024704,-0.168194 -2.76485,-0.07568 -3.012838,0.160178 -5.645673,-0.09687 -8.789611,-0.858131 -2.299156,-0.556712 -5.145559,-1.641777 -5.520181,-2.104325 -0.767403,-0.947519 -1.421552,-8.03458 -0.907158,-9.828167 0.609036,-2.123585 5.003444,-4.870761 9.822481,-6.140552 10.164992,-2.678423 22.263864,0.759817 25.41355,7.221987 2.329934,4.780289 2.181681,14.993018 -0.376621,25.944529 -1.176514,5.036395 -1.10656,4.848203 -1.751021,4.710527 -0.306722,-0.06553 -1.587141,-0.351829 -2.845375,-0.636231 -5.620495,-1.27042 -12.580601,-1.74081 -15.915578,-1.075641 -2.046985,0.408279 -4.071338,1.288667 -5.32471,2.31571 -2.086167,1.709458 -4.779193,6.179754 -5.999071,9.958175 -1.177149,3.646077 -1.431394,5.475924 -1.446684,10.412074 -0.0078,2.516469 0.05423,5.019939 0.137827,5.563267 l 0.152001,0.98787 -3.479562,-0.02727 C 31.825854,86.57832 29.74461,86.49947 29.114626,86.418106 Z M 46.856795,31.696071 c 1.03171,-0.274166 1.600817,-0.863497 1.600817,-1.657705 0,-1.772626 -0.895056,-2.17004 -4.887356,-2.17004 -2.769864,0 -3.201191,0.04781 -3.847493,0.426438 -0.99299,0.581738 -1.367632,1.381915 -1.029364,2.198565 0.489049,1.180669 2.313996,1.682515 5.500775,1.512667 1.029464,-0.05487 2.227644,-0.194334 2.662621,-0.309925 z"
       id="path403" />
    <path
       style="fill:#f5d44a;fill-opacity:0.916875;fill-rule:evenodd;stroke:#000000;stroke-width:1;stroke-linecap:round;stroke-linejoin:round;stroke-dasharray:none;stroke-dashoffset:0;stroke-opacity:1"
       d="m 60.360076,105.3078 c -4.07149,-0.58381 -8.581577,-2.22508 -11.559885,-4.20678 -6.371288,-4.239308 -9.6664,-12.686676 -9.039151,-23.172824 0.461856,-7.721146 4.003943,-15.108657 8.15543,-17.009271 1.598789,-0.731949 2.925334,-0.918835 6.522049,-0.918835 5.662488,0 10.402,0.925572 18.145065,3.543522 3.031832,1.02507 5.767115,1.863765 6.078402,1.863765 0.72176,0 1.301114,-0.814605 1.112844,-1.564729 -0.185395,-0.738675 -0.965078,-1.152102 -4.736388,-2.511461 -2.622202,-0.945168 -3.274349,-1.255561 -3.192369,-1.519424 1.036897,-3.337367 2.648044,-12.02648 3.030803,-16.345493 0.13178,-1.487004 0.282648,-2.926582 0.335261,-3.199061 l 0.09566,-0.495418 7.216187,0.103711 7.216189,0.103711 1.671021,0.620812 c 3.765888,1.39909 6.373278,3.807501 7.978475,7.369614 1.034071,2.294716 1.061091,2.690514 1.061091,15.541875 0,11.629065 -0.0141,12.060983 -0.43497,13.352 -0.761285,2.335126 -1.63097,3.727661 -3.508378,5.617601 -2.845333,2.864332 -5.078368,3.760571 -10.302772,4.135073 -8.057393,0.57758 -12.495767,0.04417 -17.469697,-2.099537 -2.405436,-1.036714 -2.68392,-1.033607 -3.229609,0.03603 -0.236739,0.464045 -0.37648,1.013709 -0.310538,1.221475 0.243548,0.767352 5.42593,2.732257 9.162952,3.474141 1.349005,0.267808 2.884384,0.372547 5.555621,0.378986 l 3.691414,0.0089 0.107736,0.623918 c 0.331716,1.92102 0.932326,6.463784 0.932326,7.05172 0,0.951134 -0.695949,1.885773 -2.331589,3.131259 -2.996242,2.28153 -7.015223,3.92059 -11.488391,4.68532 -2.639465,0.45124 -7.935753,0.54203 -10.464785,0.1794 z m 18.787368,-7.161395 c 1.467192,-0.716169 1.674884,-2.157629 0.44336,-3.077094 -0.665257,-0.496684 -3.426417,-0.739345 -6.129872,-0.538712 -2.188027,0.162383 -2.824581,0.566821 -2.91923,1.854748 -0.129573,1.76316 1.188886,2.330857 5.174194,2.227879 2.055391,-0.05311 2.788226,-0.152802 3.431548,-0.466821 z"
       id="path404" />
    <path
       style="fill:#5b9acd;fill-opacity:0.916875;fill-rule:evenodd;stroke:#000000;stroke-width:1;stroke-linecap:round;stroke-linejoin:round;stroke-dasharray:none;stroke-dashoffset:0;stroke-opacity:1"
       d="m 12.426669,117.34194 c -4.5032846,-1.21926 -7.8335566,-4.35329 -9.5206056,-8.95959 l -0.700181,-1.91176 V 60 c 0,-50.0958091 -0.094236,-46.998863 1.5303817,-50.2940309 C 5.3597562,6.4130844 8.3373865,3.9195174 11.99506,2.789777 13.846744,2.2178501 14.83067,2.2058824 60,2.2058824 c 45.16933,0 46.15326,0.011968 48.00494,0.5838946 3.65767,1.1297404 6.6353,3.6233074 8.2588,6.9161921 1.62461,3.2951679 1.53038,0.1982218 1.53038,50.2940309 v 46.47059 l -0.70075,1.94164 c -1.40453,3.89173 -4.39773,7.02014 -8.17448,8.54376 l -1.71301,0.69107 -46.617645,0.0564 c -39.497421,0.0478 -46.85346,-0.007 -48.161566,-0.36157 z M 74.2578,107.39029 c 4.302509,-1.1328 8.494691,-3.27726 10.844423,-5.54734 2.711798,-2.619859 2.778703,-3.034371 1.708053,-10.582524 l -0.2384,-1.68075 1.346415,-0.17715 c 3.014177,-0.396585 4.541059,-0.818829 6.493988,-1.795841 3.969086,-1.98565 6.812911,-5.339032 8.315531,-9.805497 l 0.84343,-2.50707 -0.10984,-12.5 C 103.35681,50.890982 103.32091,50.201821 102.70954,48.361138 100.8974,42.905285 96.004232,38.537162 90.366388,37.342424 88.992776,37.051335 86.375447,36.920409 81.8594,36.916871 l -6.522956,-0.0051 -0.183794,-1.691177 C 74.371521,28.033091 72.650297,24.699795 68.188247,21.733429 63.804706,18.819257 58.915803,17.5 52.5,17.5 c -6.493765,0 -11.422965,1.330976 -15.698126,4.238786 -4.177342,2.841278 -5.100171,4.997355 -4.480048,10.467096 0.192568,1.69853 0.422183,3.431571 0.510259,3.851206 l 0.160136,0.762971 -2.672274,0.189682 c -4.56612,0.324112 -8.172621,1.935488 -11.095648,4.957506 -1.943866,2.009694 -2.856306,3.508656 -3.856901,6.336127 l -0.808574,2.284861 v 12.352941 c 0,10.89733 0.06115,12.574303 0.51895,14.2315 1.530613,5.540697 5.910494,10.018456 11.367131,11.621156 0.997454,0.292968 3.420879,0.539486 6.489392,0.660118 l 4.897427,0.192532 0.840108,2.474356 c 2.730918,8.043322 8.78248,13.251902 17.845841,15.359912 1.349103,0.31378 2.783798,0.63465 3.188209,0.71304 0.404412,0.0784 3.183824,0.1035 6.176471,0.0558 4.760047,-0.0759 5.808491,-0.18344 8.375447,-0.85929 z"
       id="path405" />
  </g>
</svg>
